<svg xmlns="http://www.w3.org/2000/svg" viewBox="0 0 64 64" role="img" aria-label="Fun Guy Fungi">
  <title>Fun Guy Fungi</title>
  <!-- stem -->
  <path d="M27 36 L26 52 C26 55.5 29 57 32 57 C35 57 38 55.5 38 52 L37 36 Z"
        fill="#EDEFF1" stroke="#89AEC4" stroke-width="1.3" stroke-linejoin="round"/>
  <!-- cap -->
  <path d="M7 35 C7 18 23 9 32 9 C41 9 57 18 57 35 C57 37.2 54.8 38 50 38 L14 38 C9.2 38 7 37.2 7 35 Z"
        fill="#5E8CA8"/>
  <!-- cap sheen -->
  <path d="M14 30 C19 19 26 14 32 14 C38 14 45 19 50 30 C44 27 38 25.5 32 25.5 C26 25.5 20 27 14 30 Z"
        fill="#89AEC4" opacity="0.55"/>
  <!-- gills -->
  <g stroke="#1F252A" stroke-width="1" opacity="0.22" stroke-linecap="round">
    <line x1="19" y1="37.5" x2="19" y2="33"/>
    <line x1="25" y1="37.5" x2="25" y2="32"/>
    <line x1="32" y1="37.5" x2="32" y2="31.5"/>
    <line x1="39" y1="37.5" x2="39" y2="32"/>
    <line x1="45" y1="37.5" x2="45" y2="33"/>
  </g>
</svg>
